<svg xmlns="http://www.w3.org/2000/svg" xmlns:xlink="http://www.w3.org/1999/xlink" version="1.1" width="256" height="256" viewBox="0 0 256 256" xml:space="preserve">

<defs>
</defs>
<g style="stroke: none; stroke-width: 0; stroke-dasharray: none; stroke-linecap: butt; stroke-linejoin: miter; stroke-miterlimit: 10; fill: none; fill-rule: nonzero; opacity: 1;" transform="translate(1.4065934065934016 1.4065934065934016) scale(2.81 2.81)" >
	<path d="M 80.644 67.765 L 69.069 56.19 c -1.439 -1.438 -3.7 -1.533 -5.266 -0.314 l -4.014 -4.014 c 3.395 -3.74 5.274 -8.526 5.274 -13.612 c 0 -5.422 -2.112 -10.52 -5.946 -14.354 s -8.931 -5.945 -14.353 -5.945 s -10.52 2.111 -14.354 5.945 s -5.945 8.931 -5.945 14.354 c 0 5.422 2.111 10.519 5.945 14.353 s 8.932 5.946 14.354 5.946 c 5.086 0 9.872 -1.879 13.612 -5.274 l 4.013 4.013 c -0.543 0.696 -0.852 1.541 -0.852 2.441 c 0 1.07 0.414 2.074 1.167 2.826 l 11.574 11.575 c 0.779 0.779 1.803 1.169 2.826 1.169 c 1.022 0 2.046 -0.39 2.825 -1.169 l 0.715 -0.715 C 82.202 71.858 82.202 69.323 80.644 67.765 z M 31.823 51.189 c -3.456 -3.456 -5.359 -8.051 -5.359 -12.939 s 1.903 -9.483 5.359 -12.939 c 3.457 -3.456 8.052 -5.359 12.94 -5.359 s 9.483 1.903 12.939 5.359 s 5.36 8.052 5.36 12.939 s -1.904 9.483 -5.36 12.939 s -8.051 5.36 -12.939 5.36 S 35.28 54.646 31.823 51.189 z M 79.229 72.003 l -0.715 0.715 c -0.75 0.751 -2.073 0.749 -2.823 0 L 64.117 61.143 c -0.375 -0.375 -0.581 -0.876 -0.581 -1.412 c 0 -0.535 0.206 -1.036 0.581 -1.411 l 0.715 -0.715 c 0.375 -0.375 0.876 -0.581 1.411 -0.581 c 0.536 0 1.037 0.206 1.412 0.581 l 11.574 11.574 C 80.008 69.957 80.008 71.225 79.229 72.003 z" style="stroke: none; stroke-width: 1; stroke-dasharray: none; stroke-linecap: butt; stroke-linejoin: miter; stroke-miterlimit: 10; fill: rgb(23,63,243); fill-rule: nonzero; opacity: 1;" transform=" matrix(1 0 0 1 0 0) " stroke-linecap="round" />
	<path d="M 31.425 45.3 c -0.303 0 -0.602 -0.137 -0.798 -0.396 c -0.333 -0.44 -0.247 -1.068 0.194 -1.401 l 18.395 -13.92 c 0.226 -0.171 0.516 -0.239 0.79 -0.185 c 0.277 0.053 0.52 0.22 0.667 0.461 l 5.851 9.589 l 2.155 -1.549 c 0.449 -0.324 1.074 -0.22 1.396 0.229 c 0.322 0.448 0.22 1.073 -0.229 1.396 l -3.031 2.178 c -0.227 0.162 -0.512 0.225 -0.782 0.168 c -0.273 -0.055 -0.511 -0.222 -0.655 -0.459 l -5.837 -9.566 L 32.027 45.097 C 31.847 45.234 31.635 45.3 31.425 45.3 z" style="stroke: none; stroke-width: 1; stroke-dasharray: none; stroke-linecap: butt; stroke-linejoin: miter; stroke-miterlimit: 10; fill: rgb(23,63,243); fill-rule: nonzero; opacity: 1;" transform=" matrix(1 0 0 1 0 0) " stroke-linecap="round" />
	<path d="M 85.396 10.052 H 4.604 C 2.065 10.052 0 12.117 0 14.655 v 46.655 c 0 2.538 2.065 4.604 4.604 4.604 h 31.272 v 12.034 H 23.189 c -0.552 0 -1 0.447 -1 1 s 0.448 1 1 1 h 43.621 c 0.553 0 1 -0.447 1 -1 s -0.447 -1 -1 -1 H 54.124 V 65.914 h 4.285 c 0.553 0 1 -0.447 1 -1 s -0.447 -1 -1 -1 H 4.604 C 3.168 63.914 2 62.746 2 61.311 v -8.911 l 10.492 -7.789 l 5.804 9.5 c 0.147 0.241 0.39 0.408 0.667 0.461 c 0.062 0.012 0.124 0.018 0.186 0.018 c 0.216 0 0.428 -0.07 0.604 -0.202 l 4.04 -3.058 c 0.44 -0.334 0.527 -0.961 0.194 -1.401 s -0.96 -0.526 -1.401 -0.194 l -3.159 2.392 l -5.799 -9.491 c -0.146 -0.24 -0.387 -0.407 -0.663 -0.46 c -0.276 -0.056 -0.562 0.011 -0.787 0.179 L 2 49.909 V 14.655 c 0 -1.436 1.168 -2.604 2.604 -2.604 h 80.793 c 1.436 0 2.604 1.168 2.604 2.604 v 2.177 L 67.549 31.525 c -0.448 0.322 -0.551 0.947 -0.229 1.396 c 0.195 0.272 0.502 0.417 0.813 0.417 c 0.202 0 0.406 -0.061 0.582 -0.188 L 88 19.295 v 42.016 c 0 1.436 -1.168 2.604 -2.604 2.604 h -1.747 c -0.553 0 -1 0.447 -1 1 s 0.447 1 1 1 h 1.747 c 2.538 0 4.604 -2.065 4.604 -4.604 V 14.655 C 90 12.117 87.935 10.052 85.396 10.052 z M 52.124 77.948 H 37.876 V 65.914 h 14.248 V 77.948 z" style="stroke: none; stroke-width: 1; stroke-dasharray: none; stroke-linecap: butt; stroke-linejoin: miter; stroke-miterlimit: 10; fill: rgb(23,63,243); fill-rule: nonzero; opacity: 1;" transform=" matrix(1 0 0 1 0 0) " stroke-linecap="round" />
</g>
</svg>